<?xml version="1.0" standalone="no"?>
<!DOCTYPE svg PUBLIC "-//W3C//DTD SVG 20010904//EN"
 "http://www.w3.org/TR/2001/REC-SVG-20010904/DTD/svg10.dtd">
<svg version="1.0" xmlns="http://www.w3.org/2000/svg"
 width="512.000000pt" height="512.000000pt" viewBox="0 0 512.000000 512.000000"
 preserveAspectRatio="xMidYMid meet">

<g transform="translate(0.000000,512.000000) scale(0.100000,-0.100000)"
fill="#000000" stroke="none">
<path d="M1935 4430 c-60 -5 -184 -19 -275 -30 -210 -26 -260 -48 -302 -129
l-28 -53 0 -1682 c0 -1125 4 -1693 10 -1718 14 -48 53 -94 101 -118 35 -18 60
-20 303 -20 163 0 276 4 293 11 38 14 81 56 104 101 18 35 19 66 19 618 l0
580 159 0 c786 0 1337 384 1447 1010 59 336 -1 672 -163 917 -55 84 -183 213
-269 273 -153 106 -340 179 -569 222 -92 17 -159 21 -415 23 -168 2 -354 -1
-415 -5z m681 -754 c256 -65 372 -243 335 -513 -27 -206 -150 -343 -358 -398
-83 -23 -286 -40 -365 -31 l-68 8 0 472 c0 260 3 476 8 480 13 14 382 -1 448
-18z"/>
</g>
</svg>
