<?xml version="1.0" standalone="no"?>
<!DOCTYPE svg PUBLIC "-//W3C//DTD SVG 20010904//EN"
 "http://www.w3.org/TR/2001/REC-SVG-20010904/DTD/svg10.dtd">
<svg version="1.0" xmlns="http://www.w3.org/2000/svg"
 width="512.000000pt" height="512.000000pt" viewBox="0 0 512.000000 512.000000"
 preserveAspectRatio="xMidYMid meet">

<g transform="translate(0.000000,512.000000) scale(0.100000,-0.100000)"
fill="#000000" stroke="none">
<path d="M655 5114 c-11 -2 -45 -9 -75 -15 -217 -44 -429 -224 -522 -444 -56
-133 -53 -12 -53 -2095 0 -2083 -3 -1962 53 -2095 93 -219 290 -387 522 -446
82 -21 3878 -21 3960 0 274 70 491 287 561 561 21 82 21 3878 0 3960 -59 230
-227 429 -441 520 -140 59 19 54 -2070 56 -1053 1 -1924 0 -1935 -2z m2440
-1092 c314 -88 561 -336 646 -647 32 -115 32 -335 0 -450 -85 -312 -333 -560
-646 -647 -75 -20 -105 -22 -462 -26 l-383 -3 0 -540 c0 -521 -1 -541 -20
-579 -36 -70 -70 -80 -280 -80 -210 0 -244 10 -280 80 -20 39 -20 56 -20 1420
0 1364 0 1381 20 1420 12 24 35 48 58 60 36 19 53 20 662 17 613 -3 627 -3
705 -25z"/>
<path d="M2250 3150 l0 -301 348 3 c394 3 398 4 482 88 61 61 85 119 85 210 0
91 -24 149 -85 210 -84 84 -88 85 -482 88 l-348 3 0 -301z"/>
</g>
</svg>
